<?xml version="1.0" encoding="utf-8"?>
<!-- Generator: Adobe Illustrator 25.1.0, SVG Export Plug-In . SVG Version: 6.00 Build 0)  -->
<svg version="1.1" id="Layer_1" xmlns="http://www.w3.org/2000/svg" xmlns:xlink="http://www.w3.org/1999/xlink" x="0px" y="0px"
	 viewBox="0 0 595.28 841.89" style="enable-background:new 0 0 595.28 841.89;" xml:space="preserve">
<style type="text/css">
	.st0{fill:#717ABB;stroke:#CE8ABC;stroke-width:8;stroke-miterlimit:10;}
	.st1{fill:#46BFB4;}
	.st2{fill:#C91E58;}
	.st3{fill:#D44799;}
	.st4{fill:#6CBE45;}
	.st5{fill:none;}
	.st6{fill:#D42B91;}
	.st7{fill:#1C6BB5;stroke:#CE8ABC;stroke-width:8;stroke-miterlimit:10;}
	.st8{fill:#70C173;}
	.st9{fill:#374FA2;}
	.st10{fill:#DCE11F;}
	.st11{fill:#EB3794;}
	.st12{fill:#02743E;}
	.st13{fill:#BF1D73;stroke:#70C7AB;stroke-width:8;stroke-miterlimit:10;}
	.st14{fill:#6B64AD;stroke:#2B3B97;stroke-width:8;stroke-miterlimit:10;}
	.st15{fill:#D3E27B;}
</style>
<ellipse class="st0" cx="279.64" cy="399.76" rx="231.93" ry="107.23"/>
<path class="st1" d="M210.77,354.32h16l25.3,66.7h-21l-2.2-6h-20.2l-2.2,6h-21L210.77,354.32z M200.37,413.02l1.9-5h33l1.9,5h2.8
	l-19.3-50.7h-3.8l-19.3,50.7H200.37z M218.77,364.72l15.6,40.9h-31.2L218.77,364.72z M223.27,400.32l-4.5-11.7l-4.5,11.7H223.27z"/>
<path class="st2" d="M258.93,431.37v-66.7h18.5c6.27,0,11.85,0.7,16.75,2.1c4.9,1.4,9.03,3.5,12.4,6.3c3.37,2.8,5.93,6.28,7.7,10.45
	c1.77,4.17,2.65,8.98,2.65,14.45c0,5.47-0.88,10.29-2.65,14.45c-1.77,4.17-4.33,7.65-7.7,10.45c-3.37,2.8-7.5,4.92-12.4,6.35
	c-4.9,1.43-10.48,2.15-16.75,2.15H258.93z M268.93,423.37h8.5c9.73,0,17.08-2.22,22.05-6.65c4.97-4.43,7.45-10.68,7.45-18.75
	c0-8.07-2.48-14.3-7.45-18.7c-4.97-4.4-12.32-6.6-22.05-6.6h-8.5V423.37z M271.53,420.97v-45.9h5.9c8.47,0,15.05,1.92,19.75,5.75
	c4.7,3.83,7.05,9.55,7.05,17.15c0,7.6-2.35,13.33-7.05,17.2c-4.7,3.87-11.28,5.8-19.75,5.8H271.53z M280.23,412.37
	c5,0,8.87-1.18,11.6-3.55c2.73-2.37,4.1-5.98,4.1-10.85c0-4.87-1.37-8.46-4.1-10.8c-2.73-2.33-6.6-3.5-11.6-3.5V412.37z"/>
<path class="st3" d="M328.25,432.34l-6.82-66.35l18.4-1.89c6.23-0.64,11.86-0.52,16.88,0.38c5.02,0.89,9.34,2.56,12.98,5
	c3.63,2.44,6.54,5.64,8.73,9.61c2.18,3.96,3.56,8.67,4.11,14.1c0.56,5.44,0.17,10.32-1.16,14.65c-1.33,4.33-3.53,8.05-6.59,11.18
	c-3.06,3.13-6.96,5.66-11.69,7.58c-4.73,1.93-10.21,3.21-16.44,3.85L328.25,432.34z M337.38,423.36l8.46-0.87
	c9.68-1,16.77-3.95,21.25-8.87c4.49-4.92,6.32-11.39,5.49-19.41c-0.82-8.02-3.93-13.97-9.32-17.84c-5.39-3.87-12.93-5.31-22.61-4.31
	l-8.46,0.87L337.38,423.36z M339.72,420.71l-4.69-45.66l5.87-0.6c8.42-0.87,15.17,0.37,20.23,3.7c5.07,3.33,7.99,8.78,8.77,16.34
	c0.78,7.56-0.97,13.51-5.25,17.83c-4.28,4.33-10.63,6.92-19.05,7.79L339.72,420.71z M347.5,411.27c4.97-0.51,8.7-2.08,11.18-4.72
	c2.48-2.63,3.47-6.37,2.97-11.21c-0.5-4.84-2.23-8.28-5.18-10.32c-2.96-2.04-6.92-2.81-11.9-2.3L347.5,411.27z"/>
<path class="st4" d="M393.01,414.65l-10.23-54.63l25.67,6.38l3.82,20.28l12.76-16.16l25.67,6.38l-34.62,43.48l-9.21,37.05
	l-23.07-5.74L393.01,414.65z M399.37,444.6l7.67-30.85l24.42-30.66l-3.36-0.83l-21.47,27.15l-6.37-34.07l-3.25-0.81l7.11,38.5
	l-7.67,30.85L399.37,444.6z"/>
<rect x="112.83" y="585.25" class="st5" width="0" height="40.96"/>
<rect x="140.78" y="550.31" class="st5" width="18.42" height="82.12"/>
<rect x="-222.72" y="165.98" class="st5" width="2.41" height="0"/>
<polygon class="st6" points="392.71,360.51 375.47,349.42 355.55,354.27 361.93,337.99 348.9,323.52 370.09,324.55 381.96,310.76 
	388.67,327.67 409.04,333.62 392,343.04 "/>
<polygon class="st7" points="294.2,332.5 281.54,326.88 270.79,335.63 272.58,322.26 260.7,315.24 274.47,312.6 277.87,299.5 
	284.6,311.24 298.57,310.17 288.96,320.07 "/>
<polygon class="st8" points="223.71,490.34 206.32,482.7 192.1,495.29 193.99,476.39 177.62,466.76 196.18,462.72 200.28,444.17 
	209.86,460.57 228.77,458.74 216.12,472.92 "/>
<polygon class="st9" points="215.91,484.32 205.24,478.79 196.66,487.2 197.67,474.26 187.61,467.39 198.91,464.92 201.28,452.27 
	207.24,463.68 218.77,462.73 211.16,472.25 "/>
<polygon class="st10" points="387.3,351.49 377.93,343.24 366.58,348.44 371.47,336.83 363.13,327.52 375.51,328.6 381.7,317.64 
	384.47,329.92 396.64,332.46 385.97,338.97 "/>
<polygon class="st11" points="379.89,450.62 367.23,468.82 381.13,486.1 357.11,481.61 342.05,498.43 339.88,477.46 316.67,470.58 
	339.34,462.11 340.06,441.03 356.25,456.77 "/>
<path class="st11" d="M437.51,437.39"/>
<polygon class="st12" points="364.77,480.09 352.91,476.97 345.11,486.44 344.41,474.2 333,469.71 344.43,465.26 345.17,453.02 
	352.93,462.51 364.8,459.44 358.17,469.75 "/>
<polygon class="st13" points="478.42,434.86 467.47,421.45 450.7,425.79 460.07,411.22 450.77,396.62 467.52,401.03 478.53,387.67 
	479.51,404.96 495.62,411.3 479.48,417.58 "/>
<polygon class="st14" points="178.44,348.81 165.85,342.19 152.48,347.06 157.07,337.01 145.62,329.45 161.04,329.86 167.33,320.32 
	172.27,330.62 187.61,332.29 175.24,338.24 "/>
<path class="st15" d="M87.53,359.66l20.05-3.17l25.76,34.39l13.78-40.65l20.05-3.17l15.46,97.78l-24.27,3.84l-5.56-35.18
	l-10.86,31.77l-20.25-26.85l5.56,35.18l-24.27,3.84L87.53,359.66z M115.49,443.44l-10.64-67.29l33.08,43.75l17.85-51.81l10.64,67.29
	l2.96-0.47l-11.75-74.32l-2.96,0.47l-17.78,52.25l-33.15-44.19l-2.96,0.47l11.75,74.32L115.49,443.44z"/>
</svg>
