<?xml version="1.0" encoding="utf-8"?>
<!-- Generator: Adobe Illustrator 25.1.0, SVG Export Plug-In . SVG Version: 6.00 Build 0)  -->
<svg version="1.1" id="Layer_1" xmlns="http://www.w3.org/2000/svg" xmlns:xlink="http://www.w3.org/1999/xlink" x="0px" y="0px"
	 viewBox="0 0 490 232" style="enable-background:new 0 0 490 232;" xml:space="preserve">
<style type="text/css">
	.st0{fill:#717ABB;stroke:#CE8ABC;stroke-width:8;stroke-miterlimit:10;}
	.st1{fill:#46BFB4;}
	.st2{fill:#C91E58;}
	.st3{fill:#D44799;}
	.st4{fill:#6CBE45;}
	.st5{fill:none;}
	.st6{fill:#D42B91;}
	.st7{fill:#1C6BB5;stroke:#CE8ABC;stroke-width:8;stroke-miterlimit:10;}
	.st8{fill:#70C173;}
	.st9{fill:#374FA2;}
	.st10{fill:#DCE11F;}
	.st11{fill:#EB3794;}
	.st12{fill:#02743E;}
	.st13{fill:#BF1D73;stroke:#70C7AB;stroke-width:8;stroke-miterlimit:10;}
	.st14{fill:#6B64AD;stroke:#2B3B97;stroke-width:8;stroke-miterlimit:10;}
	.st15{fill:#D3E27B;}
</style>
<ellipse class="st0" cx="245.64" cy="114.87" rx="231.93" ry="107.23"/>
<path class="st1" d="M176.77,69.43h16l25.3,66.7h-21l-2.2-6h-20.2l-2.2,6h-21L176.77,69.43z M166.37,128.13l1.9-5h33l1.9,5h2.8
	l-19.3-50.7h-3.8l-19.3,50.7H166.37z M184.77,79.83l15.6,40.9h-31.2L184.77,79.83z M189.27,115.43l-4.5-11.7l-4.5,11.7H189.27z"/>
<path class="st2" d="M224.93,146.48v-66.7h18.5c6.27,0,11.85,0.7,16.75,2.1s9.03,3.5,12.4,6.3s5.93,6.28,7.7,10.45
	c1.77,4.17,2.65,8.98,2.65,14.45s-0.88,10.29-2.65,14.45c-1.77,4.17-4.33,7.65-7.7,10.45c-3.37,2.8-7.5,4.92-12.4,6.35
	s-10.48,2.15-16.75,2.15L224.93,146.48L224.93,146.48z M234.93,138.48h8.5c9.73,0,17.08-2.22,22.05-6.65s7.45-10.68,7.45-18.75
	s-2.48-14.3-7.45-18.7c-4.97-4.4-12.32-6.6-22.05-6.6h-8.5V138.48z M237.53,136.08v-45.9h5.9c8.47,0,15.05,1.92,19.75,5.75
	s7.05,9.55,7.05,17.15s-2.35,13.33-7.05,17.2c-4.7,3.87-11.28,5.8-19.75,5.8H237.53z M246.23,127.48c5,0,8.87-1.18,11.6-3.55
	s4.1-5.98,4.1-10.85s-1.37-8.46-4.1-10.8c-2.73-2.33-6.6-3.5-11.6-3.5V127.48z"/>
<path class="st3" d="M294.25,147.45l-6.82-66.35l18.4-1.89c6.23-0.64,11.86-0.52,16.88,0.38c5.02,0.89,9.34,2.56,12.98,5
	c3.63,2.44,6.54,5.64,8.73,9.61c2.18,3.96,3.56,8.67,4.11,14.1c0.56,5.44,0.17,10.32-1.16,14.65c-1.33,4.33-3.53,8.05-6.59,11.18
	s-6.96,5.66-11.69,7.58c-4.73,1.93-10.21,3.21-16.44,3.85L294.25,147.45z M303.38,138.47l8.46-0.87c9.68-1,16.77-3.95,21.25-8.87
	c4.49-4.92,6.32-11.39,5.49-19.41c-0.82-8.02-3.93-13.97-9.32-17.84s-12.93-5.31-22.61-4.31l-8.46,0.87L303.38,138.47z
	 M305.72,135.82l-4.69-45.66l5.87-0.6c8.42-0.87,15.17,0.37,20.23,3.7c5.07,3.33,7.99,8.78,8.77,16.34s-0.97,13.51-5.25,17.83
	c-4.28,4.33-10.63,6.92-19.05,7.79L305.72,135.82z M313.5,126.38c4.97-0.51,8.7-2.08,11.18-4.72c2.48-2.63,3.47-6.37,2.97-11.21
	s-2.23-8.28-5.18-10.32c-2.96-2.04-6.92-2.81-11.9-2.3L313.5,126.38z"/>
<path class="st4" d="M359.01,129.76l-10.23-54.63l25.67,6.38l3.82,20.28l12.76-16.16l25.67,6.38l-34.62,43.48l-9.21,37.05
	l-23.07-5.74L359.01,129.76z M365.37,159.71l7.67-30.85l24.42-30.66l-3.36-0.83l-21.47,27.15l-6.37-34.07l-3.25-0.81l7.11,38.5
	l-7.67,30.85L365.37,159.71z"/>
<rect x="78.83" y="300.36" class="st5" width="0" height="40.96"/>
<rect x="106.78" y="265.42" class="st5" width="18.42" height="82.12"/>
<polygon class="st5" points="-256.72,-118.91 -254.31,-118.91 -254.31,-118.91 "/>
<polygon class="st6" points="358.71,75.62 341.47,64.53 321.55,69.38 327.93,53.1 314.9,38.63 336.09,39.66 347.96,25.87 
	354.67,42.78 375.04,48.73 358,58.15 "/>
<polygon class="st7" points="260.2,47.61 247.54,41.99 236.79,50.74 238.58,37.37 226.7,30.35 240.47,27.71 243.87,14.61 
	250.6,26.35 264.57,25.28 254.96,35.18 "/>
<polygon class="st8" points="189.71,205.45 172.32,197.81 158.1,210.4 159.99,191.5 143.62,181.87 162.18,177.83 166.28,159.28 
	175.86,175.68 194.77,173.85 182.12,188.03 "/>
<polygon class="st9" points="181.91,199.43 171.24,193.9 162.66,202.31 163.67,189.37 153.61,182.5 164.91,180.03 167.28,167.38 
	173.24,178.79 184.77,177.84 177.16,187.36 "/>
<polygon class="st10" points="353.3,66.6 343.93,58.35 332.58,63.55 337.47,51.94 329.13,42.63 341.51,43.71 347.7,32.75 
	350.47,45.03 362.64,47.57 351.97,54.08 "/>
<polygon class="st11" points="345.89,165.73 333.23,183.93 347.13,201.21 323.11,196.72 308.05,213.54 305.88,192.57 282.67,185.69 
	305.34,177.22 306.06,156.14 322.25,171.88 "/>
<path class="st11" d="M403.51,152.5"/>
<polygon class="st12" points="330.77,195.2 318.91,192.08 311.11,201.55 310.41,189.31 299,184.82 310.43,180.37 311.17,168.13 
	318.93,177.62 330.8,174.55 324.17,184.86 "/>
<polygon class="st13" points="444.42,149.97 433.47,136.56 416.7,140.9 426.07,126.33 416.77,111.73 433.52,116.14 444.53,102.78 
	445.51,120.07 461.62,126.41 445.48,132.69 "/>
<polygon class="st14" points="144.44,63.92 131.85,57.3 118.48,62.17 123.07,52.12 111.62,44.56 127.04,44.97 133.33,35.43 
	138.27,45.73 153.61,47.4 141.24,53.35 "/>
<path class="st15" d="M53.53,74.77l20.05-3.17l25.76,34.39l13.78-40.65l20.05-3.17l15.46,97.78l-24.27,3.84l-5.56-35.18
	l-10.86,31.77l-20.25-26.85l5.56,35.18l-24.27,3.84L53.53,74.77z M81.49,158.55L70.85,91.26l33.08,43.75l17.85-51.81l10.64,67.29
	l2.96-0.47L123.63,75.7l-2.96,0.47l-17.78,52.25L69.74,84.23l-2.96,0.47l11.75,74.32L81.49,158.55z"/>
</svg>
